<?xml version="1.0" encoding="UTF-8" standalone="no"?>
<svg xmlns="http://www.w3.org/2000/svg"
     xmlns:svg="http://www.w3.org/2000/svg"
     version="1.1"
     width="1.56667in" height="1.05667in"
     viewBox="0 0 470 317">
  <path id="path1"
        fill="#1b6778" stroke="none" stroke-width="1"
        d="M 223.00,69.00
           C 223.00,69.00 215.00,42.00 215.00,42.00
             213.10,46.83 215.02,51.12 216.00,56.00
             206.69,43.79 212.93,35.23 202.00,29.00
             202.00,29.00 207.00,47.00 207.00,47.00
             197.06,35.80 201.76,27.57 192.00,22.00
             192.00,22.00 198.00,41.00 198.00,41.00
             195.09,38.46 193.77,37.59 192.06,33.99
             189.18,27.96 189.18,20.27 182.00,18.00
             182.00,18.00 187.00,34.00 187.00,34.00
             177.24,26.13 182.06,16.63 172.00,13.00
             172.00,13.00 178.00,30.00 178.00,30.00
             166.17,20.52 173.66,12.86 163.00,9.00
             163.00,9.00 168.00,23.00 168.00,23.00
             158.31,15.63 162.49,9.22 156.00,5.00
             156.00,5.00 157.00,11.00 157.00,11.00
             151.61,3.45 153.26,1.09 147.00,0.00
             147.40,7.18 150.54,12.51 155.00,18.00
             155.00,18.00 148.00,16.00 148.00,16.00
             150.10,22.75 156.94,23.44 163.00,26.00
             163.00,26.00 152.00,26.00 152.00,26.00
             155.50,32.26 165.31,31.12 172.00,32.00
             165.64,34.32 163.57,34.00 157.00,34.00
             157.00,34.00 161.04,36.94 161.04,36.94
             161.04,36.94 183.00,38.00 183.00,38.00
             183.00,38.00 164.00,41.00 164.00,41.00
             169.95,47.47 177.41,42.67 185.00,42.19
             188.54,41.96 190.72,42.98 194.00,44.00
             194.00,44.00 173.00,47.00 173.00,47.00
             176.86,52.77 188.07,48.95 194.00,48.47
             197.75,48.16 199.47,49.08 203.00,50.00
             203.00,50.00 184.00,53.00 184.00,53.00
             187.64,57.68 193.89,55.62 199.00,55.37
             204.02,55.13 207.54,56.42 211.00,60.00
             211.00,60.00 199.00,59.00 199.00,59.00
             199.00,59.00 213.79,65.65 213.79,65.65
             213.79,65.65 219.00,74.00 219.00,74.00
             209.30,73.77 208.59,81.84 206.71,89.00
             205.38,94.10 204.84,94.09 204.00,100.00
             212.18,97.67 215.55,94.56 222.08,89.20
             223.59,88.72 232.50,79.03 235.00,78.96
             237.54,79.00 246.41,88.72 247.92,89.20
             254.45,94.56 257.82,97.67 266.00,100.00
             265.16,94.09 264.62,94.10 263.29,89.00
             261.41,81.84 260.70,73.77 251.00,74.00
             251.00,74.00 256.21,65.65 256.21,65.65
             256.21,65.65 271.00,59.00 271.00,59.00
             271.00,59.00 259.00,60.00 259.00,60.00
             262.46,56.42 265.98,55.13 271.00,55.37
             276.11,55.62 282.36,57.68 286.00,53.00
             286.00,53.00 267.00,50.00 267.00,50.00
             270.53,49.08 272.25,48.16 276.00,48.47
             281.93,48.95 293.14,52.77 297.00,47.00
             297.00,47.00 276.00,44.00 276.00,44.00
             279.28,42.98 281.46,41.96 285.00,42.19
             292.59,42.67 300.05,47.47 306.00,41.00
             306.00,41.00 287.00,38.00 287.00,38.00
             287.00,38.00 308.96,36.94 308.96,36.94
             308.96,36.94 313.00,34.00 313.00,34.00
             306.43,34.00 304.36,34.32 298.00,32.00
             304.69,31.12 314.50,32.26 318.00,26.00
             318.00,26.00 307.00,26.00 307.00,26.00
             313.06,23.44 319.90,22.75 322.00,16.00
             322.00,16.00 315.00,18.00 315.00,18.00
             319.46,12.51 322.60,7.18 323.00,0.00
             316.74,1.09 318.39,3.45 313.00,11.00
             313.00,11.00 314.00,5.00 314.00,5.00
             307.51,9.22 311.69,15.63 302.00,23.00
             302.00,23.00 307.00,9.00 307.00,9.00
             296.34,12.86 303.83,20.52 292.00,30.00
             292.00,30.00 298.00,13.00 298.00,13.00
             287.94,16.63 292.76,26.13 283.00,34.00
             283.00,34.00 288.00,18.00 288.00,18.00
             280.82,20.27 280.82,27.96 277.94,33.99
             276.23,37.59 274.91,38.46 272.00,41.00
             272.00,41.00 278.00,22.00 278.00,22.00
             268.24,27.57 272.94,35.80 263.00,47.00
             263.00,47.00 268.00,29.00 268.00,29.00
             257.07,35.23 263.31,43.79 254.00,56.00
             254.98,51.12 256.90,46.83 255.00,42.00
             255.00,42.00 247.00,69.00 247.00,69.00
             247.06,69.00 243.89,67.08 235.00,66.98
             226.09,67.08 222.94,69.00 223.00,69.00 Z
           M 221.00,196.00
           C 221.00,196.00 227.00,169.00 227.00,169.00
             227.00,164.00 220.00,166.00 220.00,153.00
             220.00,135.00 250.00,135.00 250.00,153.00
             250.00,166.00 243.00,164.00 243.00,169.00
             243.00,169.00 249.00,196.00 249.00,196.00
             249.00,196.00 221.00,196.00 221.00,196.00 Z
           M 260.00,230.71
           C 267.53,224.11 274.32,216.58 279.54,208.00
             290.93,189.29 291.00,172.87 291.00,152.00
             291.00,152.00 291.00,123.00 291.00,123.00
             290.99,120.06 291.54,116.23 288.69,114.43
             288.69,114.43 278.00,111.26 278.00,111.26
             269.92,108.69 261.27,105.46 254.00,101.08
             248.88,97.99 239.98,91.02 235.00,89.05
             230.02,91.02 221.12,97.99 216.00,101.08
             208.73,105.46 200.08,108.69 192.00,111.26
             192.00,111.26 181.31,114.43 181.31,114.43
             178.46,116.23 179.01,120.06 179.00,123.00
             179.00,123.00 179.00,152.00 179.00,152.00
             179.00,172.87 179.07,189.29 190.46,208.00
             195.68,216.58 202.47,224.11 210.00,230.71
             214.33,234.51 229.69,244.81 235.00,246.03
             240.70,244.76 255.67,234.51 260.00,230.71 Z
           M 247.00,105.66
           C 252.11,108.98 260.31,113.15 266.00,115.39
             266.00,115.39 281.40,120.93 281.40,120.93
             283.38,122.73 283.00,126.54 283.00,129.00
             283.00,129.00 283.00,169.00 283.00,169.00
             282.97,190.44 271.72,210.17 256.00,224.15
             251.65,228.02 240.41,236.12 235.00,238.08
             230.49,236.12 218.35,228.02 214.00,224.15
             198.28,210.17 187.03,190.44 187.00,169.00
             187.00,169.00 187.00,129.00 187.00,129.00
             187.00,126.54 186.62,122.73 188.60,120.93
             188.60,120.93 204.00,115.39 204.00,115.39
             209.69,113.15 217.89,108.98 223.00,105.66
             225.38,104.11 233.48,98.48 235.00,98.00
             236.48,98.50 244.62,104.11 247.00,105.66 Z
           M 256.00,215.00
           C 266.00,207.00 277.00,183.00 277.00,173.00
             277.00,173.00 277.00,126.00 277.00,126.00
             266.00,126.00 239.00,109.00 235.00,106.03
             231.00,109.00 204.00,126.00 193.00,126.00
             193.00,126.00 193.00,173.00 193.00,173.00
             193.00,183.00 204.00,207.00 214.00,215.00
             214.00,215.00 231.00,230.00 235.00,230.00
             239.01,230.00 256.00,215.00 256.00,215.00 Z
           M 196.00,102.00
           C 174.16,87.45 151.66,75.00 128.00,63.75
             107.24,53.87 72.97,42.04 50.00,42.00
             50.00,42.00 41.00,42.00 41.00,42.00
             35.12,42.07 31.62,43.05 26.00,44.35
             9.82,48.08 -0.64,53.45 1.10,72.00
             1.41,75.26 3.17,79.94 4.46,83.00
             10.40,97.00 26.38,109.62 36.91,121.00
             52.84,138.22 57.99,157.40 81.00,168.22
             87.17,171.12 93.15,172.92 100.00,173.00
             123.33,173.27 133.19,171.08 155.00,162.40
             158.42,161.04 170.27,156.27 171.98,153.61
             173.22,151.68 173.00,148.26 173.00,146.00
             173.00,146.00 173.00,109.00 173.00,109.00
             179.52,108.45 191.12,106.30 196.00,102.00 Z
           M 173.00,162.00
           C 166.10,163.29 157.75,167.88 151.00,170.55
             151.00,170.55 137.00,174.97 137.00,174.97
             137.00,174.97 107.00,180.72 107.00,180.72
             104.27,181.73 100.33,184.80 98.00,186.67
             82.82,198.78 78.26,216.26 86.31,234.00
             95.03,253.19 112.03,266.50 132.00,272.41
             140.34,274.88 148.52,276.30 157.00,273.48
             167.35,270.03 174.11,262.88 180.00,254.00
             183.78,248.30 191.54,233.46 192.89,227.00
             193.22,225.49 193.35,224.51 192.89,223.00
             192.89,223.00 181.26,204.00 181.26,204.00
             173.82,188.70 173.00,178.53 173.00,162.00 Z
           M 274.00,102.00
           C 295.84,87.45 318.34,75.00 342.00,63.75
             362.76,53.87 397.03,42.04 420.00,42.00
             420.00,42.00 429.00,42.00 429.00,42.00
             434.88,42.07 438.38,43.05 444.00,44.35
             460.18,48.08 470.64,53.45 468.90,72.00
             468.59,75.26 466.83,79.94 465.54,83.00
             459.60,97.00 443.62,109.62 433.09,121.00
             417.16,138.22 412.01,157.40 389.00,168.22
             382.83,171.12 376.85,172.92 370.00,173.00
             346.67,173.27 336.81,171.08 315.00,162.40
             311.58,161.04 299.73,156.27 298.02,153.61
             296.78,151.68 297.00,148.26 297.00,146.00
             297.00,146.00 297.00,109.00 297.00,109.00
             290.48,108.45 278.88,106.30 274.00,102.00 Z
           M 297.00,162.00
           C 303.90,163.29 312.25,167.88 319.00,170.55
             319.00,170.55 333.00,174.97 333.00,174.97
             333.00,174.97 363.00,180.72 363.00,180.72
             365.73,181.73 369.67,184.80 372.00,186.67
             387.18,198.78 391.74,216.26 383.69,234.00
             374.97,253.19 357.97,266.50 338.00,272.41
             329.66,274.88 321.48,276.30 313.00,273.48
             302.65,270.03 295.89,262.88 290.00,254.00
             286.22,248.30 278.46,233.46 277.11,227.00
             276.78,225.49 276.65,224.51 277.11,223.00
             277.11,223.00 288.74,204.00 288.74,204.00
             296.18,188.70 297.00,178.53 297.00,162.00 Z
           M 198.00,229.00
           C 198.00,229.00 225.00,248.54 225.00,248.54
             225.00,248.54 235.00,252.73 235.00,252.73
             235.00,252.73 245.00,248.54 245.00,248.54
             245.00,248.54 272.00,229.00 272.00,229.00
             272.00,229.00 272.00,241.00 272.00,241.00
             271.97,260.30 262.75,283.22 251.97,299.00
             249.17,303.09 244.39,309.56 240.96,312.98
             239.50,314.44 237.22,316.80 235.00,316.80
             232.75,316.80 230.60,314.49 229.17,312.98
             226.02,309.67 220.65,302.84 218.03,299.00
             207.36,283.36 198.03,260.11 198.00,241.00
             198.00,241.00 198.00,229.00 198.00,229.00 Z">
  </path>
</svg>
